<svg xmlns="http://www.w3.org/2000/svg" width="20.714" height="19.616" viewBox="0 0 20.714 19.616">
  <path id="Shape" d="M9.458,17.9a.723.723,0,0,1,.732-.716,7.97,7.97,0,0,0,8.059-7.877A7.97,7.97,0,0,0,10.19,1.432,7.97,7.97,0,0,0,2.131,9.308a7.749,7.749,0,0,0,2.013,5.208V12A.733.733,0,0,1,5.61,12v4.05a.724.724,0,0,1-.732.716H.732a.716.716,0,1,1,0-1.432h2.2A9.155,9.155,0,0,1,.666,9.308,9.418,9.418,0,0,1,10.19,0a9.418,9.418,0,0,1,9.524,9.308,9.418,9.418,0,0,1-9.524,9.308A.724.724,0,0,1,9.458,17.9Zm2.808-4.6L9.672,10.77a.711.711,0,0,1-.214-.507V5.3a.733.733,0,0,1,1.465,0V9.966L13.3,12.292a.7.7,0,0,1,0,1.013.745.745,0,0,1-1.036,0Z" transform="translate(0.5 0.5)" fill="#fff" stroke="#fff" stroke-width="1" opacity="0.3"/>
</svg>
