<svg xmlns="http://www.w3.org/2000/svg" width="22" height="25" viewBox="0 0 22 25">
  <g id="Group_46182" data-name="Group 46182" transform="translate(-217 -723)" opacity="0.3">
    <g id="Group_45310" data-name="Group 45310" transform="translate(-99 677)" opacity="0.8">
      <g id="Group_45311" data-name="Group 45311" transform="translate(2 1)">
        <path id="Polygon_1" data-name="Polygon 1" d="M6.586,1.414a2,2,0,0,1,2.828,0l3.172,3.172A2,2,0,0,1,11.172,8H4.828A2,2,0,0,1,3.414,4.586Z" transform="translate(336 54) rotate(90)" fill="#fff"/>
        <rect id="Rectangle_9709" data-name="Rectangle 9709" width="9" height="3" rx="1.5" transform="translate(317 60.5)" fill="#fff"/>
      </g>
    </g>
    <g id="Group_45846" data-name="Group 45846" transform="translate(555 794) rotate(180)" opacity="0.8">
      <g id="Group_45311-2" data-name="Group 45311" transform="translate(2 1)">
        <path id="Polygon_1-2" data-name="Polygon 1" d="M6.586,1.414a2,2,0,0,1,2.828,0l3.172,3.172A2,2,0,0,1,11.172,8H4.828A2,2,0,0,1,3.414,4.586Z" transform="translate(336 54) rotate(90)" fill="#fff"/>
        <rect id="Rectangle_9709-2" data-name="Rectangle 9709" width="9" height="3" rx="1.5" transform="translate(317 60.5)" fill="#fff"/>
      </g>
    </g>
  </g>
</svg>
