<svg xmlns="http://www.w3.org/2000/svg" width="56.199" height="60.775" viewBox="0 0 56.199 60.775">
  <g id="Path_15923" data-name="Path 15923" transform="translate(-13.582 -0.532)" fill="#fff" stroke-linecap="square" stroke-linejoin="round">
    <path d="M41.439.532c10.451,0,19.131,3.616,24.149,13.094C71.8,25.35,69.273,61.2,69.273,61.2s.164.231-.316,0H14.742s-.983-8.831-1.141-19.336c-.138-9.167.426-19.8,3.12-25.781C21.439,5.614,30.172.532,41.439.532Z" stroke="none"/>
    <path d="M 41.43945693969727 1.531795501708984 C 35.93805694580078 1.531795501708984 31.13019561767578 2.777046203613281 27.14943695068359 5.232948303222656 C 23.06769561767578 7.751155853271484 19.86605834960938 11.54118728637695 17.63338470458984 16.4979362487793 C 14.90247344970703 22.55812835693359 14.47712707519531 33.63116455078125 14.6011962890625 41.85320663452148 C 14.72805023193359 50.28520584106445 15.39719390869141 57.71056365966797 15.64432525634766 60.20415878295898 L 68.33482360839844 60.20415878295898 C 68.48750305175781 57.65200042724609 68.87599182128906 50.1739387512207 68.760009765625 41.82541656494141 C 68.57261657714844 28.337646484375 67.17047119140625 18.74827575683594 64.70509338378906 14.09383773803711 C 63.52750396728516 11.86971664428711 62.10034561157227 9.917316436767578 60.46328735351562 8.290885925292969 C 58.89657592773438 6.734355926513672 57.09132385253906 5.430606842041016 55.09769439697266 4.415859222412109 C 51.33790588378906 2.50213623046875 46.74261474609375 1.531795501708984 41.43945693969727 1.531795501708984 M 41.43945693969727 0.5317955017089844 C 51.89005661010742 0.5317955017089844 60.57067489624023 4.148048400878906 65.5888671875 13.62591552734375 C 71.79887390136719 25.34989929199219 69.2734375 61.20415878295898 69.2734375 61.20415878295898 C 69.2734375 61.20415878295898 69.4375 61.43487548828125 68.95707702636719 61.20415878295898 L 14.7421875 61.20415878295898 C 14.7421875 61.20415878295898 13.75935363769531 52.37329864501953 13.60130310058594 41.86824798583984 C 13.46298217773438 32.70137786865234 14.02685546875 22.06720733642578 16.72167205810547 16.08709716796875 C 21.43927383422852 5.613597869873047 30.17201614379883 0.5317955017089844 41.43945693969727 0.5317955017089844 Z" stroke="none" fill="rgba(70,152,216,0.76)"/>
  </g>
</svg>
